<?xml version="1.0" encoding="utf-8"?>
<!-- Generator: Adobe Illustrator 21.0.2, SVG Export Plug-In . SVG Version: 6.00 Build 0)  -->
<svg version="1.1" id="Layer_1" xmlns="http://www.w3.org/2000/svg" xmlns:xlink="http://www.w3.org/1999/xlink" x="0px" y="0px"
	 viewBox="0 0 419.5 595.3" style="enable-background:new 0 0 419.5 595.3;" xml:space="preserve">
<style type="text/css">
	.st0{fill:none;stroke:#000000;stroke-width:2;stroke-miterlimit:10;}
	.st1{fill:none;stroke:#000000;stroke-width:4;stroke-miterlimit:10;}
</style>
<path d="M386,179.6h-22.6l8.1,12.7v217c0,0-18.5-1.5-71-6s-56.2,8-56.2,8c-32.5-20-59.5,0-59.5,0c-6.5-12.2-34.8-8-44.5-8.8
	s-82,6.5-82,6.5l-1.8-217l8.2-11.5l0.6-0.9H44v252.7l138.7-6.7c48.6,23,66.7-0.7,66.7-0.7l139.3,4L386,179.6z"/>
<path class="st0" d="M214,402.4c-2.5-18.9-29-23.1-39.5-21.6S70,388.3,70,388.3V170.8c0,0,78.5-7,92-12s41,0.7,52,20.8
	c0,0,7-16.8,37.5-22.5c30.5-5.8,36,12.7,88.5,13.7l18.5,0.5v216c0,0-80.8-4.8-100-7.5c0,0-22,0.5-31.5,5.5S214,402.4,214,402.4z"/>
<line class="st0" x1="56.5" y1="192" x2="70" y2="170.8"/>
<line class="st0" x1="58.2" y1="409" x2="70" y2="388.3"/>
<line class="st0" x1="371.5" y1="409.3" x2="358.5" y2="387.3"/>
<line class="st0" x1="371.5" y1="192.3" x2="358.5" y2="171.3"/>
<line class="st0" x1="214.2" y1="184.6" x2="214.2" y2="398.3"/>
<path class="st1" d="M228.3,194.3c0,0,28-13.3,53-7.7c25,5.7,50.7,9.7,59.3,7.7"/>
<path class="st1" d="M228.3,216.3c0,0,28-13.3,53-7.7c25,5.7,50.7,9.7,59.3,7.7"/>
<path class="st1" d="M228.3,241.9c0,0,28-13.3,53-7.7s50.7,9.7,59.3,7.7"/>
<path class="st1" d="M228.3,265c0,0,28-13.3,53-7.7c25,5.7,50.7,9.7,59.3,7.7"/>
<path class="st1" d="M228.3,311.9c0,0,28-13.3,53-7.7c25,5.7,50.7,9.7,59.3,7.7"/>
<path class="st1" d="M225.7,333.2c0,0,28-13.3,53-7.7c25,5.7,50.7,9.7,59.3,7.7"/>
<path class="st1" d="M228.3,282.3c0,0,23.7-11,50,0c26.3,11,34.3,3,43,2"/>
<path class="st1" d="M228.3,350.3c0,0,23.7-11,50,0c26.3,11,34.3,3,43,2"/>
<path class="st1" d="M87.3,194.8c0,0,52-1.9,66.3-7.5c14.3-5.7,47,7.5,47,7.5"/>
<path class="st1" d="M87.3,242.1c0,0,52-1.9,66.3-7.5c14.3-5.7,47,7.5,47,7.5"/>
<path class="st1" d="M87.3,265.2c0,0,52-1.9,66.3-7.5c14.3-5.7,47,7.5,47,7.5"/>
<path class="st1" d="M85.5,312.1c0,0,52-1.9,66.3-7.5c14.3-5.7,47,7.5,47,7.5"/>
<path class="st1" d="M90.3,352.8c0,0,52-1.9,66.3-7.5c14.3-5.7,47,7.5,47,7.5"/>
<path class="st1" d="M85.5,333.7c0,0,34.2,0.9,49.5-3.4s37.3-5.3,49.7,0"/>
<path class="st1" d="M83.3,285.6c0,0,44.7,1.1,65.7-6.4c21-7.6,35.7,3.5,35.7,3.5"/>
<path class="st1" d="M85.5,214.9c0,0,41.5,2.7,66.2-5.7s36,3,36,3"/>
</svg>
