<?xml version="1.0" encoding="utf-8"?>
<!-- Generator: Adobe Illustrator 21.0.2, SVG Export Plug-In . SVG Version: 6.00 Build 0)  -->
<svg version="1.1" id="Layer_1" xmlns="http://www.w3.org/2000/svg" xmlns:xlink="http://www.w3.org/1999/xlink" x="0px" y="0px"
	 viewBox="0 0 595.3 841.9" style="enable-background:new 0 0 595.3 841.9;" xml:space="preserve">
<path d="M298,318.2c-49.8,0-90.2,40.4-90.2,90.2c0,49.8,40.4,90.2,90.2,90.2s90.2-40.4,90.2-90.2C388.2,358.6,347.8,318.2,298,318.2
	z M279.5,484.6c-0.2,0.9-1,1.6-2,1.6c-0.1,0-0.3,0-0.4,0c-0.5-0.1-45.8-10.6-55.5-52.5c-0.2-1.1,0.4-2.1,1.5-2.4
	c1.1-0.2,2.1,0.4,2.4,1.5c9.1,39.5,52,49.4,52.5,49.5C279,482.5,279.7,483.6,279.5,484.6z M281.8,476.6c-0.2,0.9-1,1.5-1.9,1.5
	c-0.2,0-0.3,0-0.5-0.1c-1.6-0.4-38.7-10.5-49.2-45.8c-0.3-1.1,0.3-2.2,1.3-2.5c1.1-0.3,2.2,0.3,2.5,1.3c9.9,33.1,46,42.9,46.4,43
	C281.5,474.4,282.1,475.5,281.8,476.6z M284,468.5c-0.3,0.9-1.1,1.4-1.9,1.4c-0.2,0-0.4,0-0.6-0.1c-0.4-0.1-9-2.7-18.7-8.9
	c-12.9-8.3-21.3-19.1-24.4-31.3c-0.3-1.1,0.4-2.2,1.4-2.4c1.1-0.3,2.2,0.4,2.4,1.4c6.8,27,40,37.3,40.3,37.4
	C283.7,466.3,284.3,467.4,284,468.5z M286.1,458.9c-0.1,1-1,1.8-2,1.8c-0.1,0-0.2,0-0.2,0c-1.1-0.1-26.6-3.5-37.2-34
	c-0.4-1,0.2-2.2,1.2-2.5c1-0.4,2.2,0.2,2.5,1.2c9.8,28.2,33.6,31.3,33.8,31.4C285.4,456.8,286.2,457.8,286.1,458.9z M288.9,451.2
	c-0.2,1-1,1.7-2,1.7c-0.1,0-0.2,0-0.3,0c-1-0.2-23.6-4-31.8-28.5c-0.3-1,0.2-2.2,1.3-2.5c1-0.4,2.2,0.2,2.5,1.3
	c7.4,22.2,27.8,25.7,28.6,25.9C288.3,449.1,289,450.1,288.9,451.2z M297.6,440.1c-17.5,0-31.7-14.2-31.7-31.7
	c0-17.5,14.2-31.7,31.7-31.7c17.5,0,31.7,14.2,31.7,31.7C329.3,425.9,315.1,440.1,297.6,440.1z M339.6,395.8
	c-0.2,0.1-0.4,0.1-0.6,0.1c-0.8,0-1.6-0.5-1.9-1.4c-7.4-22.2-27.8-25.7-28.6-25.9c-1.1-0.2-1.8-1.2-1.7-2.3c0.2-1.1,1.2-1.8,2.3-1.7
	c1,0.2,23.6,4,31.8,28.5C341.2,394.3,340.7,395.4,339.6,395.8z M347.9,393.5c-0.2,0.1-0.4,0.1-0.7,0.1c-0.8,0-1.6-0.5-1.9-1.3
	c-9.7-28.1-32.9-31.2-33.9-31.4c-1.1-0.1-1.9-1.1-1.7-2.2c0.1-1.1,1.1-1.9,2.2-1.7c1.1,0.1,26.6,3.5,37.2,34
	C349.5,392,348.9,393.1,347.9,393.5z M355.9,390.4c-0.2,0-0.3,0.1-0.5,0.1c-0.9,0-1.7-0.6-1.9-1.5c-6.8-27-40-37.3-40.3-37.4
	c-1.1-0.3-1.7-1.4-1.3-2.5c0.3-1.1,1.4-1.7,2.5-1.3c0.4,0.1,9,2.7,18.7,8.9c12.9,8.3,21.3,19.1,24.4,31.3
	C357.6,389.1,357,390.2,355.9,390.4z M364.2,387.8c-0.2,0.1-0.4,0.1-0.6,0.1c-0.9,0-1.7-0.6-1.9-1.4c-9.8-33.1-46-42.9-46.4-43
	c-1.1-0.3-1.7-1.4-1.4-2.4c0.3-1.1,1.4-1.7,2.4-1.4c1.6,0.4,38.7,10.5,49.2,45.8C365.8,386.4,365.2,387.5,364.2,387.8z M372.6,386.3
	c-0.2,0-0.3,0.1-0.5,0.1c-0.9,0-1.7-0.6-1.9-1.6c-9.1-39.4-52-49.4-52.5-49.5c-1.1-0.2-1.8-1.3-1.5-2.4c0.2-1.1,1.3-1.8,2.4-1.5
	c0.5,0.1,45.8,10.6,55.5,52.5C374.4,385,373.7,386.1,372.6,386.3z"/>
<path d="M297.6,429.9c-11.9,0-21.5-9.6-21.5-21.5s9.6-21.5,21.5-21.5s21.5,9.6,21.5,21.5S309.5,429.9,297.6,429.9z M297.6,387.9
	c-11.3,0-20.5,9.2-20.5,20.5s9.2,20.5,20.5,20.5c11.3,0,20.5-9.2,20.5-20.5S308.9,387.9,297.6,387.9z"/>
<circle cx="297.8" cy="408.4" r="2.2"/>
</svg>
