<?xml version="1.0" encoding="utf-8"?>
<!-- Generator: Adobe Illustrator 21.0.2, SVG Export Plug-In . SVG Version: 6.00 Build 0)  -->
<svg version="1.1" id="Layer_1" xmlns="http://www.w3.org/2000/svg" xmlns:xlink="http://www.w3.org/1999/xlink" x="0px" y="0px"
	 viewBox="0 0 595.3 841.9" style="enable-background:new 0 0 595.3 841.9;" xml:space="preserve">
<style type="text/css">
	.st0{fill:none;stroke:#000000;stroke-width:5;stroke-miterlimit:10;}
</style>
<path d="M193,618.5c2.1,3.1,3.3,6.7,3.3,10.6c0,11.2-10,20.3-22.4,20.3s-22.4-9.1-22.4-20.3c0-4,1.3-7.7,3.5-10.8"/>
<path d="M442.5,618.2c2.2,3.1,3.5,6.9,3.5,10.9c0,11.2-10,20.3-22.4,20.3s-22.4-9.1-22.4-20.3c0-4,1.3-7.7,3.5-10.8"/>
<path d="M381.4,529.4H215.1c-28.1,0-51.1-23-51.1-51.1V359.6c0-28.1,23-51.1,51.1-51.1h166.3c28.1,0,51.1,23,51.1,51.1v118.7
	C432.5,506.4,409.5,529.4,381.4,529.4z"/>
<g>
	<circle cx="184.9" cy="591" r="13.6"/>
	<ellipse cx="184.9" cy="577.3" rx="3.1" ry="4.1"/>
</g>
<g>
	<circle cx="413.1" cy="591" r="13.6"/>
	<ellipse cx="413.1" cy="577.3" rx="3.1" ry="4.1"/>
</g>
<path d="M444.4,260.9H150.1c-19.1,0-34.8,15.6-34.8,34.8v294.4c0,19.1,15.6,34.8,34.8,34.8h294.3c19.2,0,34.9-15.7,34.8-34.9V295.7
	C479.2,276.6,463.6,260.9,444.4,260.9z M184.6,613.1c-12.2,0-22.1-9.9-22.1-22.1s9.9-22.1,22.1-22.1c12.2,0,22.1,9.9,22.1,22.1
	S196.8,613.1,184.6,613.1z M355.8,613.1H247.2c-2.3,0-4.2-1.9-4.2-4.2s1.9-4.2,4.2-4.2h108.5c2.3,0,4.2,1.9,4.2,4.2
	C360,611.1,358.1,613.1,355.8,613.1z M355.8,585.9H247.2c-2.3,0-4.2-1.9-4.2-4.2s1.9-4.2,4.2-4.2h108.5c2.3,0,4.2,1.9,4.2,4.2
	C360,584,358.1,585.9,355.8,585.9z M413.1,613.1c-12.2,0-22.1-9.9-22.1-22.1s9.9-22.1,22.1-22.1s22.1,9.9,22.1,22.1
	S425.3,613.1,413.1,613.1z M454.4,520.4c0,16.3-13.4,29.6-29.7,29.6H168.5c-16.3,0-29.7-13.4-29.7-29.7V318.6
	c0-16.3,13.4-29.7,29.7-29.7h256.2c16.3,0,29.7,13.4,29.7,29.7V520.4z"/>
<polyline class="st0" points="246.7,264.6 204.7,233.2 225.7,193.9 164,176.6 182,148.6 123.3,129.2 "/>
<polyline class="st0" points="334.7,264.6 374,231.9 348,196.9 418.7,173.9 403.3,140.6 482.7,121.9 "/>
</svg>
