<svg id="Layer_1" data-name="Layer 1" xmlns="http://www.w3.org/2000/svg" xmlns:xlink="http://www.w3.org/1999/xlink" viewBox="0 0 266.96 232.04"><defs><style>.cls-1{fill:none;}.cls-2{clip-path:url(#clip-path);}</style><clipPath id="clip-path" transform="translate(-263.86 -138.02)"><rect class="cls-1" x="263.87" y="138.02" width="266.96" height="232.04"/></clipPath></defs><title>Cat Head</title><g class="cls-2"><path d="M366.07,333.73h0v0Zm-7.66,1.46c1.07,0,5.34-.41,7.44-.66l.37-.06a2.08,2.08,0,0,0,1.46-.84,2.65,2.65,0,0,0,0-2.14l-.24-.88s-1.52-2.32-2.81-4.22a1.5,1.5,0,0,0-1.57-.72c-1.21.24-2.33,1.93-3.63,3.89-.48.72-.94,1.43-1.38,2-1.27,1.62-1.6,2.41-1.27,3.06s1.19.61,1.58.59" transform="translate(-263.86 -138.02)"/><path d="M357.84,317.38a11.53,11.53,0,0,1-1.38-2.41c-.55-1.16-1-2.17-2-2l-.64.34-.16.21c-.93,1.2-1.52,2.06-1.51,2.08-2.83,2.64-4,4.51-3.45,5.55s1.85.69,2.29.6l2.28-.43c2.83-.55,4.55-1.09,5-2.24a1.72,1.72,0,0,0-.41-1.72" transform="translate(-263.86 -138.02)"/><path d="M390.16,292c-5,.65-11.1-5.18-11.17-5.24l-.74-.71-.4.95a19.37,19.37,0,0,0-1.1,10.42c1.55,7.11,7.14,10,17.59,9a19.47,19.47,0,0,0,1.94-.27c9.74-1.89,11-10.62,11.76-16,.8-5.57-3.78-11.16-7.13-13.2-1.92-1.16-6.38-1.92-10.88-1a14.52,14.52,0,0,0-6.61,3l-2.08,1.76,2.67-.52a24.28,24.28,0,0,1,6.92-.35c.65.12,6.34,1.3,6.37,6,0,3.82-2,5.57-7.15,6.22" transform="translate(-263.86 -138.02)"/><path d="M431,265.8l0,2.72a38,38,0,0,1,9,1.18c-.12,3.63,0,6.54,0,6.54l2.71-.11s-.09-2.46,0-5.61a16.88,16.88,0,0,1,2.85,1.28l1.4-2.33a21.93,21.93,0,0,0-4.08-1.73,43.5,43.5,0,0,1,1.14-5.33c8.46,2.62,15.68,8.15,18.84,10.58l.77.6,1.64-2.17-.76-.58c-3.29-2.54-10.82-8.3-19.78-11,1.61-5.49,3.9-11.94,5.86-15.35l-2.35-1.35c-2.09,3.62-4.47,10.28-6.13,16a30.83,30.83,0,0,0-5.54-.82,21.46,21.46,0,0,0-6.56.54l.76,2.61a20,20,0,0,1,5.67-.44,28.46,28.46,0,0,1,4.95.71,53.12,53.12,0,0,0-1.16,5.25A41.12,41.12,0,0,0,431,265.8" transform="translate(-263.86 -138.02)"/><path d="M359.76,314.16c.56,2.88,4.94,2.41,8.69,1.68,1.52-.3,3.09-.68,4.53-1l1.44-.33.81.54c4.58,2.9,9.91,5,26.29,8.17,7.81,1.54,12.39,1.49,15.82.83a30.59,30.59,0,0,0,5.44-1.7,33.43,33.43,0,0,1,4.83-1.57,90,90,0,0,0,12.15-4.13l1.5-.3,9.28-1.75c1.76-.34,3.35-.67,4.55-1,3.58-.89,6.14-1.6,8-2.22,15.63,5.7,23.82,9,31.23,14.29,10.29,7.37,12.64,8.55,13.6,8.36a1.2,1.2,0,0,0,.56-.31l-1-1.2.37-1.16c-.17-.06-2-.74-11.95-7.89-7.25-5.18-15.15-8.49-29.33-13.7a1.75,1.75,0,0,0,.58-.74v-.78l-.27-.3a6.2,6.2,0,0,0-.74-.65l.32-.47-2.41-1.69c-4.24-3-6.15-4.38-7.78-3.32-.61.39-1.08,1.18-2,2.78l-.34.59c-7.47-2.7-16.26-5.89-26.93-9.89l-1,2.54c10.43,3.91,19,7,26.41,9.7a4.51,4.51,0,0,1-1.73,1.69c-.82.24-2.85,1.08-5.47,2.18C440,313.65,432,317,427,318.12a35.63,35.63,0,0,0-5.22,1.68c-4.26,1.64-8,3.06-19.76.74-16-3.14-21.06-5.09-25.36-7.81a182.49,182.49,0,0,1-14.84-11.24l-.45.44c-.85-.66-1.59-1-2.41.19a4.38,4.38,0,0,0-.49,2.13c-.89.39-1.8.81-2.69,1.22a3.31,3.31,0,0,0-1.28-1.17c-3.94-2.26-5.22-2.79-6.2-2.6s-1.23.91-1.61,1.7a10.54,10.54,0,0,1-1.08,1.87l-.79,1c-2.59,3.37-3.78,5.15-3.43,6.25-17,9-33.53,19.4-44.66,26.44-5.47,3.46-9.78,6.19-12.09,7.44l1.29,2.39c2.4-1.29,6.74-4.05,12.25-7.53,14.59-9.23,38.54-24.33,60.42-34.13.22,2,.64,4.44,1.14,7" transform="translate(-263.86 -138.02)"/><path d="M398.18,328.78c3.2,1.69,11.64,5.19,15.9,4.64l-.35-2.7c-3,.39-10.34-2.27-14.29-4.35Z" transform="translate(-263.86 -138.02)"/><path d="M414.5,348.92a13.72,13.72,0,0,0-2.48.31c-.51.1-5,1-6.44,2.32l-.43.55.12.42c.2.73,1,1.2,5.39,2.09a8.85,8.85,0,0,0,3.36-.12c1.73-.34,4.05-1.14,4.62-1.75L419,352l-.18-.42a5.82,5.82,0,0,0-4.28-2.64" transform="translate(-263.86 -138.02)"/><path d="M367.17,263l.82,2.59a28.52,28.52,0,0,1,4.8-.88,32.17,32.17,0,0,0,1.55,4.51l2.46-1.15a27.88,27.88,0,0,1-1.26-3.6,33.93,33.93,0,0,1,5.42.08l.3-2.7a37.67,37.67,0,0,0-6.42,0c-.37-1.5-.69-3-.95-4.43,3.47,0,7.44.89,13.85,3.75l1.11-2.48c-7.07-3.15-11.5-4.1-15.36-4a13.14,13.14,0,0,1-.11-1.83c.35-8.13.85-9,2.33-11.45l.41-.7-2.34-1.37-.4.68c-1.8,3-2.34,4.28-2.71,12.72a15.47,15.47,0,0,0,.12,2.17c-1.45.21-2.9.54-4.45.92l.64,2.64c1.48-.36,2.84-.67,4.2-.86.25,1.45.57,3,.93,4.51a31.13,31.13,0,0,0-4.93.93" transform="translate(-263.86 -138.02)"/><path d="M507.45,310.89c-13.88-6.89-39-15.9-79.92-19.63l-.24,2.71c40.49,3.69,65.29,12.56,79,19.35Z" transform="translate(-263.86 -138.02)"/><path d="M362.45,292.89c-35.35,6-74.44,37-81.91,43.11-4.64,3.83-8.84,7.57-8.84,7.57l1.81,2s4.16-3.71,8.76-7.5c7.37-6.07,46-36.67,80.64-42.53Z" transform="translate(-263.86 -138.02)"/><path d="M361.77,286.88l-.64-2.64c-47.72,11.55-75.67,31.23-89.1,40.69-3.82,2.69-6.58,4.64-8.16,5.26l1,2.52c1.88-.74,4.6-2.66,8.73-5.56,13.3-9.37,41-28.85,88.18-40.27" transform="translate(-263.86 -138.02)"/><path d="M475.47,349.32l1.3-1.36a42.57,42.57,0,0,1,6.38-4.87c4.73-3.22,9.63-6.54,10.69-10.34.87-3.16.67-5.82-.54-7.12a2,2,0,0,0-2.92-.18c-1.41,1.19-5.78,3.5-10.89,5.73A103.43,103.43,0,0,1,469,334.69c-2.84.85-5.8,1.74-8.63,2.72a135.59,135.59,0,0,0-23.18,11.1c-2.69,1.61-5.05,3.07-7.23,4.43-3.81,2.37-7.09,4.42-10.67,6.28-3.39,1.76-9.21,1.58-12.84,1.3a13.85,13.85,0,0,0-3.19-.05h0l-1.14.29.8.87c4.69,5.11,13.4,8.35,18.8,8.42a15.53,15.53,0,0,0,3.16-.28,19.38,19.38,0,0,0,7.66-3.59" transform="translate(-263.86 -138.02)"/><path d="M530.82,276a48.8,48.8,0,0,1-1.16-6.69c-.55-4.63-1.57-9.48-2.39-13.37-.58-2.74-1.08-5.13-1.31-6.87-.67-5.12-5.46-17.49-8.63-25.68-1.34-3.45-2.38-6.14-2.67-7.15-.58-2.1,1-8.56,2.54-14.8.83-3.38,1.7-6.89,2.32-10.07,1.87-9.5-7.13-35.35-7.52-36.45l-.48.1c-2.42-4.84-5.14-8.16-6.85-9.31v-.21l-.42-.22c-1.66-.84-4.57-.52-6.73-.1-13.13,2.55-39.17,16.48-53.61,43-4.45-2-20-6.41-29.11-3.6-.11-.45-.26-1.11-.39-1.77-1.82-8.47-7.33-34.26-36.48-44.69l-.49-.18-.31.42c-1.18,1.58-2.42,3-3.67,4.47-8.42,9.79-17.13,19.92-13.92,76.67l.11,1.93,1.16-1.55c1.53-2,5.17-3.78,9.73-4.67,5.66-1.1,11.41-.64,15.38,1.21,8.46,4,12.76,17.45,13.71,22.31a15,15,0,0,1-1.18,9.66l-1.22,2.12,2.17-1.13s4.38-1.89,6.09-1.26,2.64,4.42,2.83,5.7l.27,1.8,1-1.51a64.44,64.44,0,0,1,5.28-6.71c2.51-2.73,15.61-14.84,26.81-20.76A61.41,61.41,0,0,1,457.94,221c5.16-1,14.44-1.89,18.62,3.44,6.26,8,3.5,21.74,2.06,24.37-1.53,2.81-5.59,4.28-5.63,4.3l-2.57.92,2.69.45c1,.16,3.73.91,4.66,2.36,1.1,1.73.72,3.33-.35,6.35a18.4,18.4,0,0,1-2.38,4.67l-.79,1,1.29.11s4.89.48,12.87,4.73,10.34,11.71,12.14,17.64a11.21,11.21,0,0,0,.8,1.95c-2.49-.64-5-1.25-7.45-1.76-19-3.95-45.88-8.42-66.22-7.37l.14,2.71c20-1,46.7,3.4,65.52,7.31a247.6,247.6,0,0,1,27.91,8" transform="translate(-263.86 -138.02)"/></g></svg>