<?xml version="1.0" encoding="utf-8"?>
<!-- Generator: Adobe Illustrator 21.0.2, SVG Export Plug-In . SVG Version: 6.00 Build 0)  -->
<svg version="1.1" id="Layer_1" xmlns="http://www.w3.org/2000/svg" xmlns:xlink="http://www.w3.org/1999/xlink" x="0px" y="0px"
	 viewBox="0 0 595.3 841.9" style="enable-background:new 0 0 595.3 841.9;" xml:space="preserve">
<style type="text/css">
	.st0{stroke:#000000;stroke-width:3;stroke-miterlimit:10;}
</style>
<path d="M112.5,379.4v200c0,4.9,3.9,8.9,8.7,8.9h358.1c4.8,0,8.7-4,8.7-8.9v-200L112.5,379.4z M471.7,515.5h-83.6v59.4h-3.6v-59.4
	H210v59.4h-3.6v-59.4h-78.7v-2.8h344V515.5z M471.7,469.7h-344v-2.8h344V469.7z M471.7,423.8h-344V421h344V423.8z"/>
<path d="M111,337.9v40h379v-40H111z M187.8,375.1h-35.9l18.2-34.2h36.3L187.8,375.1z M280.4,375.1h-35.9l18.3-34.2H299L280.4,375.1z
	 M373,375.1h-35.9l18.3-34.2h36.2L373,375.1z M466.1,375.1h-35.9l18.3-34.2h36.3L466.1,375.1z"/>
<path class="st0" d="M482.8,255.6L106.3,301l4.2,34.7L487,290.4L482.8,255.6z M130.6,325.4c-5.4,0-9.7-4.3-9.7-9.7
	c0-5.4,4.3-9.7,9.7-9.7c5.4,0,9.7,4.3,9.7,9.7C140.3,321.1,136,325.4,130.6,325.4z M168.4,327.5l-21.2-29.9l35.8-4.2l21.5,29.7
	L168.4,327.5z M260.4,316.2l-21.1-29.9l35.7-4.2l21.5,29.7L260.4,316.2z M352.8,305.1l-21.1-29.9l35.8-4.2l21.5,29.7L352.8,305.1z
	 M445.2,293.9l-21.1-29.8l35.7-4.3l21.5,29.8L445.2,293.9z"/>
<rect x="111.8" y="333.9" width="17.4" height="9.2"/>
</svg>
