<?xml version="1.0" encoding="utf-8"?>
<!-- Generator: Adobe Illustrator 21.0.2, SVG Export Plug-In . SVG Version: 6.00 Build 0)  -->
<svg version="1.1" id="Layer_1" xmlns="http://www.w3.org/2000/svg" xmlns:xlink="http://www.w3.org/1999/xlink" x="0px" y="0px"
	 viewBox="0 0 595.3 841.9" style="enable-background:new 0 0 595.3 841.9;" xml:space="preserve">
<style type="text/css">
	.st0{stroke:#000000;stroke-miterlimit:10;}
</style>
<path class="st0" d="M74.1,145.9v213.9h97.5V145.9H74.1z M122.8,314.1c-17,0-30.8-13.8-30.8-30.8s13.8-30.8,30.8-30.8
	s30.8,13.8,30.8,30.8S139.8,314.1,122.8,314.1z M122.8,229.6c-17,0-30.8-13.8-30.8-30.8s13.8-30.8,30.8-30.8s30.8,13.8,30.8,30.8
	S139.8,229.6,122.8,229.6z"/>
<path class="st0" d="M384.1,145.9v213.9h97.5V145.9H384.1z M432.8,314.1c-17,0-30.8-13.8-30.8-30.8s13.8-30.8,30.8-30.8
	s30.8,13.8,30.8,30.8S449.8,314.1,432.8,314.1z M432.8,229.6c-17,0-30.8-13.8-30.8-30.8s13.8-30.8,30.8-30.8s30.8,13.8,30.8,30.8
	S449.8,229.6,432.8,229.6z"/>
<path d="M122.8,184.6c-7.8,0-14.2,6.4-14.2,14.2c0,7.8,6.4,14.2,14.2,14.2c7.8,0,14.2-6.4,14.2-14.2
	C137,191,130.6,184.6,122.8,184.6z M122.8,204.2c-3.3,0-6-2.7-6-6c0-3.3,2.7-6,6-6c3.3,0,6,2.7,6,6
	C128.8,201.5,126.1,204.2,122.8,204.2z"/>
<path d="M122.8,269.1c-7.8,0-14.2,6.4-14.2,14.2c0,7.8,6.4,14.2,14.2,14.2c7.8,0,14.2-6.4,14.2-14.2
	C137,275.5,130.6,269.1,122.8,269.1z M122.8,288.7c-3.3,0-6-2.7-6-6s2.7-6,6-6c3.3,0,6,2.7,6,6S126.1,288.7,122.8,288.7z"/>
<path d="M432.8,184.6c-7.8,0-14.2,6.4-14.2,14.2c0,7.8,6.4,14.2,14.2,14.2c7.8,0,14.2-6.4,14.2-14.2
	C447,191,440.6,184.6,432.8,184.6z M432.8,204.2c-3.3,0-6-2.7-6-6c0-3.3,2.7-6,6-6s6,2.7,6,6C438.8,201.5,436.1,204.2,432.8,204.2z"
	/>
<path d="M432.8,269.1c-7.8,0-14.2,6.4-14.2,14.2c0,7.8,6.4,14.2,14.2,14.2c7.8,0,14.2-6.4,14.2-14.2
	C447,275.5,440.6,269.1,432.8,269.1z M432.8,288.7c-3.3,0-6-2.7-6-6s2.7-6,6-6s6,2.7,6,6S436.1,288.7,432.8,288.7z"/>
<path class="st0" d="M171.5,283.3v76.5H384v-76.5H171.5z M197.6,334.4c-5.3,0-9.6-4.3-9.6-9.6s4.3-9.6,9.6-9.6s9.6,4.3,9.6,9.6
	S202.9,334.4,197.6,334.4z M242.8,350.4c-1.4,0-2.6-1.2-2.6-2.6c0-1.4,1.2-2.6,2.6-2.6c1.4,0,2.6,1.2,2.6,2.6
	C245.4,349.2,244.2,350.4,242.8,350.4z M257.3,350.4c-1.4,0-2.6-1.2-2.6-2.6c0-1.4,1.2-2.6,2.6-2.6c1.4,0,2.6,1.2,2.6,2.6
	C259.9,349.2,258.7,350.4,257.3,350.4z M271.4,350.4c-1.4,0-2.6-1.2-2.6-2.6c0-1.4,1.2-2.6,2.6-2.6c1.4,0,2.6,1.2,2.6,2.6
	C274,349.2,272.8,350.4,271.4,350.4z M314.7,329.8h-73.8c-3.4,0-6.2-2.8-6.2-6.2s2.8-6.2,6.2-6.2h73.8c3.4,0,6.2,2.8,6.2,6.2
	C320.9,326.9,318.1,329.8,314.7,329.8z M366.1,334.4c-5.3,0-9.6-4.3-9.6-9.6s4.3-9.6,9.6-9.6s9.6,4.3,9.6,9.6
	S371.4,334.4,366.1,334.4z"/>
</svg>
