<?xml version="1.0" encoding="utf-8"?>
<!-- Generator: Adobe Illustrator 21.0.2, SVG Export Plug-In . SVG Version: 6.00 Build 0)  -->
<svg version="1.1" id="Layer_1" xmlns="http://www.w3.org/2000/svg" xmlns:xlink="http://www.w3.org/1999/xlink" x="0px" y="0px"
	 viewBox="0 0 595.3 841.9" style="enable-background:new 0 0 595.3 841.9;" xml:space="preserve">
<style type="text/css">
	.st0{fill:none;stroke:#000000;stroke-width:5;stroke-miterlimit:10;}
	.st1{stroke:#000000;stroke-width:5;stroke-miterlimit:10;}
</style>
<polygon class="st0" points="104,495.9 224,614.9 137.6,648 130,650.9 69,590.9 "/>
<path class="st1" d="M52.7,676.9l85-28.9l-65-67l-29,76.6C43.7,657.6,37.7,676.9,52.7,676.9z"/>
<polygon points="102.5,491.9 327.4,272.3 367.4,311.8 144.5,533.2 "/>
<polygon points="185.7,574.1 408.7,351.9 448,389.9 228.5,615.8 "/>
<polygon class="st0" points="328.9,273.8 446.2,388.1 479.2,356.1 361.5,239.9 "/>
<path class="st0" d="M541.5,293.4c0,0,41-52-22-104c0,0-59-43-94-14s-64.2,65.2-64.2,65.2L479.1,356L541.5,293.4z"/>
</svg>
