<?xml version="1.0" encoding="utf-8"?>
<!-- Generator: Adobe Illustrator 21.0.2, SVG Export Plug-In . SVG Version: 6.00 Build 0)  -->
<svg version="1.1" id="Layer_1" xmlns="http://www.w3.org/2000/svg" xmlns:xlink="http://www.w3.org/1999/xlink" x="0px" y="0px"
	 viewBox="0 0 419.5 595.3" style="enable-background:new 0 0 419.5 595.3;" xml:space="preserve">
<style type="text/css">
	.st0{fill:none;stroke:#000000;stroke-width:4;stroke-miterlimit:10;}
	.st1{stroke:#000000;stroke-width:4;stroke-miterlimit:10;}
</style>
<path class="st0" d="M342.1,283.3c0,65.4-53,118.4-118.4,118.4s-118.4-53-118.4-118.4c0-2,0.1-4.1,0.2-6.1
	c3.2-62.6,54.9-112.4,118.3-112.4C289.1,164.9,342.1,217.9,342.1,283.3z"/>
<path class="st1" d="M105.4,277.3c2.4,10.3,19.2,45.7,19.2,45.7s-0.2,19.1,2.8,28.4c1.5,4.8-9-15.1-14.8-35.4
	C107.1,296.8,105.4,277.3,105.4,277.3z"/>
<path class="st0" d="M219,164.9c0,0-33.8,11.5-33,13.7"/>
<polyline class="st1" points="265.2,172.4 288.1,197.4 322.5,236.8 313.9,270.8 273.8,260.9 256.1,215.5 288.1,197.4 "/>
<path class="st0" d="M334.8,242.3c0,0-8.4-5.7-12.3-5.5"/>
<path class="st0" d="M334.4,325.6"/>
<path class="st1" d="M334.4,325.6l-11.9-6.1c0,0-24.9,34-33.2,37c0,0-1.3,24.8-5.1,28.7"/>
<path class="st1" d="M184.8,291.1c0,0-23.7,35.5-22.2,41.5c0,0,23.7,36.2,35.8,37.3c0,0,33-7,46-20.2c0,0-2-37.8-7.3-49.8
	L184.8,291.1z"/>
<path class="st0" d="M169,238.9c0,0,0.2,32.8,15.8,52.2"/>
<path class="st0" d="M273.8,260.9c0,0-24.8,34-36.6,39"/>
<path class="st0" d="M203,202.9c0,0,43.4,3.5,53.1,12.6"/>
<path class="st0" d="M313.9,270.8c0,0,9,8.3,8.6,48.8"/>
<path class="st0" d="M289.3,356.5c0,0-29,4.9-44.8-6.8"/>
<polyline class="st1" points="182.2,394.3 198,393.4 210.5,401 "/>
<line class="st1" x1="198.5" y1="369.9" x2="198" y2="393.4"/>
<path class="st0" d="M124.7,322.9c0,0,3.8,12.7,38,9.7"/>
<path class="st1" d="M106.3,280.5c0,0,18.8-39.3,25.7-43.8c1.1-0.7,9.7-38.7,9.7-38.7l44.3-19.3c5.7,1.7,17,24.3,17,24.3l-34,36
	l-37-2.3"/>
</svg>
