<?xml version="1.0" encoding="utf-8"?>
<!-- Generator: Adobe Illustrator 21.0.2, SVG Export Plug-In . SVG Version: 6.00 Build 0)  -->
<svg version="1.1" id="Layer_1" xmlns="http://www.w3.org/2000/svg" xmlns:xlink="http://www.w3.org/1999/xlink" x="0px" y="0px"
	 viewBox="0 0 419.5 595.3" style="enable-background:new 0 0 419.5 595.3;" xml:space="preserve">
<style type="text/css">
	.st0{fill:none;stroke:#000000;stroke-width:20;stroke-miterlimit:10;}
</style>
<rect x="85" y="136.8" class="st0" width="223" height="265.5"/>
<polygon points="135.5,200.3 159.5,230.8 196.5,202.3 171.5,171.3 "/>
<polygon points="151,247.3 166,269.5 239,207.8 226,185.8 "/>
<polygon points="195,256.3 209.8,279.3 295.5,195.3 278.5,176.3 "/>
<polygon points="182.5,263.3 188.5,272.8 174.5,284.8 166,277.3 "/>
<polygon points="145.5,279.3 154,289.3 123,316.3 116,307.3 "/>
<polygon points="129.5,284.8 126,279.3 116,289.8 119.5,294.3 "/>
<polygon points="186,308.3 202,331.8 226,311.3 209.8,289.8 "/>
<polygon points="162,304.8 169.5,310.8 159,320.8 154,312.8 "/>
</svg>
