<?xml version="1.0" encoding="utf-8"?>
<!-- Generator: Adobe Illustrator 21.0.2, SVG Export Plug-In . SVG Version: 6.00 Build 0)  -->
<svg version="1.1" id="Layer_1" xmlns="http://www.w3.org/2000/svg" xmlns:xlink="http://www.w3.org/1999/xlink" x="0px" y="0px"
	 viewBox="0 0 595.3 841.9" style="enable-background:new 0 0 595.3 841.9;" xml:space="preserve">
<style type="text/css">
	.st0{enable-background:new    ;}
	.st1{stroke:#1D1D1B;stroke-miterlimit:10;}
</style>
<path class="st0" d="M234.7,515.6c0,0-1.7,4.7,5.7,6.7h61.9c0,0,3.5-1,3.4-4.8s0.9-24.2,11.4-34.5c0,0,8.7-5.9,17.5-9.5
	c6.5-2.6,13.4-3,14.7-3.6c0,0,10.2-5.7,3.9-10c-5.7-3.9,2-15.8,0.7-15.6c-2,0.3-12.2,1-16.3-2.3c0,0-3.6-2.8-0.7-6.7
	s8.8-10.6,15.5-14.9s-6.1-9.1-6.1-9.1s-0.5-5.2,3-7.5s12.6-10.4,10.2-12s-23.4-3.8-27.8-8.4c0,0-7.2-5.4-5.8-15.5
	s-24.4-45.3-50.6-46.7s-67.9-7.8-92.6,48.6s53.4,91.6,54.8,99.2S248,489.7,234.7,515.6z"/>
<path class="st1" d="M411.9,430.1h-36.2c-2.3,0-4.1-1.9-4.1-4.1v-1c0-2.3,1.9-4.1,4.1-4.1h36.2c2.3,0,4.1,1.9,4.1,4.1v0.9
	C416,428.2,414.1,430.1,411.9,430.1z"/>
<path class="st1" d="M403.6,383.2L378,408.9c-1.6,1.6-4.2,1.6-5.9,0l-0.6-0.6c-1.6-1.6-1.6-4.2,0-5.9l25.6-25.6
	c1.6-1.6,4.2-1.6,5.9,0l0.6,0.6C405.2,379,405.2,381.6,403.6,383.2z"/>
<path class="st1" d="M396.1,476.4l-25.6-25.6c-1.6-1.6-1.6-4.2,0-5.9l0.6-0.6c1.6-1.6,4.2-1.6,5.9,0l25.6,25.6
	c1.6,1.6,1.6,4.2,0,5.9l-0.6,0.6C400.4,478,397.8,478,396.1,476.4z"/>
</svg>
