<?xml version="1.0" encoding="utf-8"?>
<!-- Generator: Adobe Illustrator 21.0.2, SVG Export Plug-In . SVG Version: 6.00 Build 0)  -->
<svg version="1.1" id="Layer_1" xmlns="http://www.w3.org/2000/svg" xmlns:xlink="http://www.w3.org/1999/xlink" x="0px" y="0px"
	 viewBox="0 0 595.3 841.9" style="enable-background:new 0 0 595.3 841.9;" xml:space="preserve">
<g>
	<g>
		<path d="M260.3,687c-8,0-15,4.6-18.3,11.3c7.9,11.3,19.4,19.7,32.9,23.7c3.7-3.7,5.9-8.8,5.9-14.4
			C280.8,696.2,271.6,687,260.3,687z"/>
		<path d="M310.6,721.4c12.9-4.2,24-12.6,31.5-23.6c-2.9-7.8-10.4-13.4-19.2-13.4c-11.3,0-20.5,9.2-20.5,20.5
			C302.3,711.7,305.6,717.7,310.6,721.4z"/>
		<path d="M352.6,663.6c0-13.4-4.4-25.8-11.7-35.9c-10.7,0.7-19.2,9.6-19.2,20.5c0,11.3,9.2,20.5,20.5,20.5c3.8,0,7.3-1,10.3-2.8
			C352.6,665.1,352.6,664.4,352.6,663.6z"/>
		<path d="M311.7,606.2c-6.2-2.2-12.9-3.4-19.9-3.4s-13.7,1.2-19.9,3.4c-0.4,1.6-0.6,3.3-0.6,5c0,11.3,9.2,20.5,20.5,20.5
			c11.3,0,20.5-9.2,20.5-20.5C312.3,609.5,312.1,607.8,311.7,606.2z"/>
		<path d="M231.1,665.9c3,1.8,6.6,2.8,10.3,2.8c11.3,0,20.5-9.2,20.5-20.5c0-10.9-8.5-19.8-19.2-20.5c-7.4,10.1-11.7,22.5-11.7,35.9
			C231,664.4,231,665.1,231.1,665.9z"/>
	</g>
	<path d="M291.8,569.5c-51.8,0-93.8,42-93.8,93.8s42,93.8,93.8,93.8s93.8-42,93.8-93.8S343.6,569.5,291.8,569.5z M266.7,608.2
		c1.3-12.7,12-22.5,25.1-22.5c13,0,23.7,9.9,25.1,22.5c0,0,0,0,0,0c0.1,1,0.2,2,0.2,3c0,13.9-11.3,25.2-25.2,25.2
		c-13.9,0-25.2-11.3-25.2-25.2C266.6,610.2,266.7,609.2,266.7,608.2C266.8,608.2,266.8,608.2,266.7,608.2z M312.5,669.6
		c0,1.5-1.2,2.7-2.7,2.7c-1.5,0-2.7-1.2-2.7-2.7c0-1.5,1.2-2.7,2.7-2.7C311.3,666.9,312.5,668.2,312.5,669.6z M305.9,648.3
		c0,1.5-1.2,2.7-2.7,2.7c-1.5,0-2.7-1.2-2.7-2.7c0-1.5,1.2-2.7,2.7-2.7C304.7,645.6,305.9,646.9,305.9,648.3z M284.4,647.7
		c0,1.5-1.2,2.7-2.7,2.7c-1.5,0-2.7-1.2-2.7-2.7c0-1.5,1.2-2.7,2.7-2.7C283.2,645,284.4,646.3,284.4,647.7z M276.5,669.6
		c0,1.5-1.2,2.7-2.7,2.7c-1.5,0-2.7-1.2-2.7-2.7c0-1.5,1.2-2.7,2.7-2.7C275.3,666.9,276.5,668.2,276.5,669.6z M218.7,659.1
		c-0.2-0.3-0.3-0.6-0.4-1c0-0.1,0-0.1-0.1-0.2c-1.3-3.1-2.1-6.4-2.1-10c0-13.9,11.3-25.2,25.2-25.2c1.7,0,3.4,0.2,5,0.5
		c0,0.1-0.1,0.1-0.1,0.2c11.6,2.2,20.4,12.5,20.4,24.7c0,13.9-11.3,25.2-25.2,25.2C231.4,673.4,222.7,667.5,218.7,659.1z
		 M280.1,723.3c-4.6,5.9-11.8,9.6-19.8,9.6c-11.8,0-21.7-8.1-24.4-19c-0.5-2-0.8-4.2-0.8-6.3c0-13.9,11.3-25.2,25.2-25.2
		c13.9,0,25.2,11.3,25.2,25.2c0,5.9-2.1,11.4-5.5,15.7C280,723.2,280.1,723.3,280.1,723.3z M284.3,663.3c0-4.5,3.6-8.1,8.1-8.1
		s8.1,3.6,8.1,8.1s-3.6,8.1-8.1,8.1S284.3,667.8,284.3,663.3z M291.7,685.5c-1.5,0-2.7-1.2-2.7-2.7c0-1.5,1.2-2.7,2.7-2.7
		c1.5,0,2.7,1.2,2.7,2.7C294.4,684.3,293.2,685.5,291.7,685.5z M346.5,713.6c-3.5,9.7-12.8,16.5-23.7,16.5
		c-13.9,0-25.2-11.3-25.2-25.2c0-13.9,11.3-25.2,25.2-25.2c9.6,0,17.9,5.4,22.2,13.2c0,0,0-0.1,0.1-0.1c1.9,3.6,3,7.6,3,11.9
		C348.1,707.9,347.5,710.8,346.5,713.6z M365.4,658.1c-0.1,0.3-0.3,0.6-0.4,1c-4.1,8.5-12.7,14.3-22.7,14.3
		c-13.9,0-25.2-11.3-25.2-25.2c0-12.3,8.8-22.5,20.4-24.7c0-0.1-0.1-0.1-0.1-0.2c1.6-0.3,3.3-0.5,5-0.5c13.9,0,25.2,11.3,25.2,25.2
		c0,3.5-0.7,6.9-2.1,10C365.4,658,365.4,658.1,365.4,658.1z"/>
</g>
</svg>
