<?xml version="1.0" encoding="utf-8"?>
<!-- Generator: Adobe Illustrator 21.0.2, SVG Export Plug-In . SVG Version: 6.00 Build 0)  -->
<svg version="1.1" id="Layer_1" xmlns="http://www.w3.org/2000/svg" xmlns:xlink="http://www.w3.org/1999/xlink" x="0px" y="0px"
	 viewBox="0 0 419.5 595.3" style="enable-background:new 0 0 419.5 595.3;" xml:space="preserve">
<style type="text/css">
	.st0{stroke:#000000;stroke-miterlimit:10;}
</style>
<path class="st0" d="M183.8,291.4l-130,130.4c0,0-11.4,12.6,1.6,26.8c13,14.2,28.8-2,33.3-6.5s123.1-122.7,123.1-122.7l125.6,124.3
	c0,0,15.3,11.4,26.7-1.2c11.4-12.6,4.5-21.1,2-24s-93.8-96.3-93.8-96.3s-32.5-11-35.3-37.8c0,0,21.9-24,43.5-27.6
	c21.5-3.7,32.5,0,43.5-8.5s76.6-91.8,76.6-91.8l-8.3-8.5l-82,86.1l-10.2-9.7l84.1-83.7l-6.5-6.9l-84.9,84.1l-8.5-7.3l84.9-85.7
	l-6.5-6.5l-86.1,84.1l-8.9-9.3l86.5-82.5l-6.9-6.9l-81.6,63.8c0,0-17.5,13-17.9,37.4s-4.9,37.4-14.2,47.5c0,0-46.3-41-50.8-45.1
	S96,123.7,23.7,120.8l-4.7,4.1L183.8,291.4z"/>
</svg>
