<?xml version="1.0" encoding="utf-8"?>
<!-- Generator: Adobe Illustrator 21.0.2, SVG Export Plug-In . SVG Version: 6.00 Build 0)  -->
<svg version="1.1" id="Layer_1" xmlns="http://www.w3.org/2000/svg" xmlns:xlink="http://www.w3.org/1999/xlink" x="0px" y="0px"
	 viewBox="0 0 419.5 595.3" style="enable-background:new 0 0 419.5 595.3;" xml:space="preserve">
<style type="text/css">
	.st0{fill:none;stroke:#000000;stroke-miterlimit:10;}
	.st1{stroke:#000000;stroke-miterlimit:10;}
	.st2{stroke:#000000;stroke-width:0.75;stroke-linecap:round;stroke-miterlimit:10;}
</style>
<path class="st0" d="M183.8,302.6l8.8,26.6c0,0,14.7,8.6,34.3,0.4l9.8-28.4c0,0-11.5,6.7-45.5,2.5
	C188.9,303.4,186.4,303,183.8,302.6z"/>
<line class="st0" x1="198.9" y1="331.1" x2="191.3" y2="303.7"/>
<line class="st0" x1="203.7" y1="332.7" x2="199.8" y2="304.5"/>
<line class="st0" x1="207.2" y1="332.7" x2="207.2" y2="305"/>
<line class="st0" x1="213.8" y1="332.7" x2="213.8" y2="305.1"/>
<line class="st0" x1="217.1" y1="332.5" x2="221.2" y2="304.5"/>
<line class="st0" x1="222.1" y1="331.1" x2="229.9" y2="303.7"/>
<path class="st1" d="M182.6,300.3c0,0,31.9,6.8,54.4-0.6c0,0,2.2-1.4,1.6-4c0,0-5.6,0-8-0.8c-2.4-0.8-7.2,1.2-8.2,1.2
	c-1.3,0.1-4.9-1.2-6,0.7c0,0-0.8,2.1-7,0.1c-5.2-1.7-7.4-2.3-10.1-2.2c-2.8,0.1-11.8,1.9-12.9,1.6s-4.7-1-5.2-1.6
	C180.5,294.1,180.9,300,182.6,300.3z"/>
<path class="st0" d="M218.6,269.1c0,0,1.8,0.8,1.4,2.3c0,0,10.9,0.8,9.9,8.9c0,0-0.2,0.2-0.6,0.5c-1.3,1-4.7,3-10.7,3.4"/>
<path class="st0" d="M229.9,280.4c8.8,3.2,5.8,8.3,5.8,8.3s-0.2,2.2-9.7,3.3"/>
<path class="st0" d="M238.3,296.2c0,0,4-3.3-2.7-7.5"/>
<path class="st0" d="M180.8,295.2c0,0-4.2-1.4,2.2-7c0,0,0.7,4.8,9.2,3.9"/>
<path class="st0" d="M192.2,292"/>
<path class="st0" d="M195.8,285.4c0,0-7.2,0.7-7.9-5c0,0-3.8-1.2-4.9,7.8"/>
<path class="st0" d="M187.8,280.4c5-11.3,11.1-8.8,11.1-8.8s0.3-2.6,3.3-3.4"/>
<path class="st1" d="M203.3,273.1c-0.9-1.2-1.4-2.6-1.4-4.1c0-4,3.7-7.3,8.4-7.3c4.6,0,8.4,3.3,8.4,7.3c0,2.2-1.2,4.2-3,5.6"/>
<path class="st0" d="M201.8,273.9c0,0,3.7-3.2,15.5,1.5"/>
<path class="st0" d="M212.2,263.3c0,0-2.9-6,12.1-9.3"/>
<line class="st2" x1="224.3" y1="252.4" x2="224.3" y2="255.5"/>
</svg>
