<?xml version="1.0" encoding="utf-8"?>
<!-- Generator: Adobe Illustrator 21.0.2, SVG Export Plug-In . SVG Version: 6.00 Build 0)  -->
<svg version="1.1" id="Layer_1" xmlns="http://www.w3.org/2000/svg" xmlns:xlink="http://www.w3.org/1999/xlink" x="0px" y="0px"
	 viewBox="0 0 419.5 595.3" style="enable-background:new 0 0 419.5 595.3;" xml:space="preserve">
<path d="M361,358.3l-5.7-60.6c-0.1-54.7-28-66.7-28-66.7c-33.6-22.3-64.3,5.7-64.3,5.7l-27.7-4.7c4.3-19.7-9-19-9-19
	c2.3-22.7,5-24,17-32s32.4,1,42.7-24.7s-6-24-6-24c-19.3,2.6,6,24-34.3,30.3s-38,51-38,51c-5.7-0.3-8.7,6.7-8.7,6.7v12
	c-4.3-1.7-26,4.3-26,4.3c-18-19.3-46.3-13.7-46.3-13.8c-39.6,8.5-42.3,41.7-42.3,41.7L74.1,376.2c0,0,0,23.6,25.3,32
	c25.3,8.4,48-11.3,48-11.3l32.3-41H256c0,0,30.9,59.7,72.3,53.7S361,358.3,361,358.3z M172.9,298.9c0,1.7-1.4,3-3,3h-24.2v24.2
	c0,1.7-1.4,3-3,3h-11c-1.7,0-3-1.4-3-3v-24.2h-24.2c-1.7,0-3-1.4-3-3v-11c0-1.7,1.4-3,3-3h24.2v-24.2c0-1.7,1.4-3,3-3h11
	c1.7,0,3,1.4,3,3v24.2h24.2c1.6,0,2.9,1.4,3,3V298.9z M208.4,326c-0.1,1.7-1.5,3.1-3.2,3.1H194c-1.7,0-3.1-1.4-3.1-3.1v-2.3
	c0-1.7,1.4-3.1,3.1-3.1h11.3c1.7,0,3.1,1.4,3.1,3.1V326z M243.4,326c-0.1,1.7-1.5,3.1-3.2,3.1H229c-1.7,0-3.1-1.4-3.1-3.1v-2.3
	c0-1.7,1.4-3.1,3.1-3.1h11.3c1.7,0,3.1,1.4,3.1,3.1V326z M271.2,304.5c-5.9,0-10.7-4.8-10.7-10.7c0-5.9,4.8-10.7,10.7-10.7
	c5.9,0,10.7,4.8,10.7,10.7C281.9,299.7,277.1,304.5,271.2,304.5z M298.2,331.3c-5.9,0-10.7-4.8-10.7-10.7c0-5.9,4.8-10.7,10.7-10.7
	c5.9,0,10.7,4.8,10.7,10.7C308.9,326.5,304.1,331.3,298.2,331.3z M298.2,277.5c-5.9,0-10.7-4.8-10.7-10.7c0-5.9,4.8-10.7,10.7-10.7
	c5.9,0,10.7,4.8,10.7,10.7C308.9,272.7,304.1,277.5,298.2,277.5z M325.2,304.5c-5.9,0-10.7-4.8-10.7-10.7c0-5.9,4.8-10.7,10.7-10.7
	c5.9,0,10.7,4.8,10.7,10.7C335.9,299.7,331.1,304.5,325.2,304.5z"/>
</svg>
