<?xml version="1.0" encoding="utf-8"?>
<!-- Generator: Adobe Illustrator 21.0.2, SVG Export Plug-In . SVG Version: 6.00 Build 0)  -->
<svg version="1.1" id="Layer_1" xmlns="http://www.w3.org/2000/svg" xmlns:xlink="http://www.w3.org/1999/xlink" x="0px" y="0px"
	 viewBox="0 0 595.3 841.9" style="enable-background:new 0 0 595.3 841.9;" xml:space="preserve">
<style type="text/css">
	.st0{fill:none;stroke:#000000;stroke-width:5;stroke-miterlimit:10;}
</style>
<path class="st0" d="M117.8,382.6L117.8,382.6h-2l-57.5,0.2L60,657.6c0,0,3.2,19.2,28,19.2s29.2-19.8,29.2-19.8l1-274.2l0.8-218
	h330.3l88.7,88.3v402.7c0,0-3.3,21-24.7,21c-21.3,0-419.6,0-419.6,0l-4.9,0.1l-2.1-0.1"/>
<path class="st0" d="M447,253.8l91,0.8L447,253.8z"/>
<line class="st0" x1="449.5" y1="164.9" x2="449.5" y2="255.6"/>
<rect x="173.3" y="210.3" width="43.3" height="7"/>
<rect x="173.3" y="353.9" width="312" height="10"/>
<path d="M324.4,417.2H184.3c-6.1,0-11-4.9-11-11v-12.1c0-6.1,4.9-11,11-11h140.1c6.1,0,11,4.9,11,11v12.1
	C335.3,412.3,330.4,417.2,324.4,417.2z"/>
<path d="M474.1,553.2h-98.8c-6.2,0-11.3-5-11.3-11.3V394.5c0-6.2,5-11.3,11.3-11.3h98.8c6.2,0,11.3,5,11.3,11.3v147.4
	C485.3,548.2,480.3,553.2,474.1,553.2z"/>
<rect x="173.3" y="446.6" width="162" height="17.3"/>
<rect x="173.3" y="491.2" width="162" height="18"/>
<rect x="173.3" y="538.6" width="162" height="18"/>
<rect x="173.3" y="582.6" width="162" height="18"/>
<rect x="364" y="582.6" width="121.3" height="18"/>
<rect x="173.3" y="632.6" width="312" height="10"/>
<g>
	<path d="M278.3,263.2c-0.7,0-1.4,0.1-2,0.2c-0.6,0.2-1.2,0.4-1.7,0.7c-0.5,0.3-1,0.7-1.3,1.1s-0.6,0.9-0.8,1.5h11.8
		C283.3,264.4,281.4,263.2,278.3,263.2z"/>
	<path d="M414.5,239.9H186.1c-7.1,0-12.8,5.7-12.8,12.8v27.7c0,7.1,5.7,12.8,12.8,12.8h228.4c7.1,0,12.8-5.7,12.8-12.8v-27.7
		C427.3,245.6,421.6,239.9,414.5,239.9z M261.5,252.7h-14v7.4h13.5v4.4h-13.5v14.7h-6.1v-30.9h20.1V252.7z M288,276.7
		c-0.8,0.7-1.8,1.3-2.7,1.8c-1,0.5-2,0.8-3.1,1c-1.1,0.2-2.4,0.3-3.7,0.3c-3.8,0-6.8-0.9-9.1-2.8c-2.3-1.9-3.4-4.4-3.4-7.5
		c0-3.1,1.1-5.6,3.3-7.5c2.2-1.9,5.2-2.8,8.9-2.8c3.7,0,6.7,0.9,8.8,2.7c2.2,1.8,3.2,4.3,3.2,7.5l0,1.1H272c0.2,1.6,0.8,2.9,2,3.8
		c1.2,0.9,2.7,1.4,4.6,1.4c1.5,0,2.7-0.3,3.6-0.8c0.9-0.5,2-1.5,3.2-3l4.9,2.1C289.6,275.1,288.8,276,288,276.7z M302.4,279.2h-5.9
		v-33.8h5.9V279.2z M315.7,279.2h-5.9v-19.5h5.9V279.2z M315.5,253.7c-0.7,0.6-1.6,0.9-2.7,0.9c-1.1,0-2-0.3-2.7-0.9
		c-0.7-0.6-1.1-1.3-1.1-2.1c0-0.8,0.4-1.5,1.1-2c0.7-0.6,1.6-0.9,2.7-0.9c1.1,0,2,0.3,2.7,0.9c0.7,0.6,1.1,1.2,1.1,2.1
		C316.6,252.5,316.2,253.1,315.5,253.7z M341.9,279.2l-7.4-7.3l-7.6,7.3h-7.2l11.3-10.6l-9.1-8.9h7l5.6,5.7l5.8-5.7h7.2l-9.4,8.9
		l10.9,10.6H341.9z"/>
</g>
</svg>
