<?xml version="1.0" encoding="utf-8"?>
<!-- Generator: Adobe Illustrator 21.0.2, SVG Export Plug-In . SVG Version: 6.00 Build 0)  -->
<svg version="1.1" id="Layer_1" xmlns="http://www.w3.org/2000/svg" xmlns:xlink="http://www.w3.org/1999/xlink" x="0px" y="0px"
	 viewBox="0 0 595.3 841.9" style="enable-background:new 0 0 595.3 841.9;" xml:space="preserve">
<style type="text/css">
	.st0{opacity:0.7;fill:none;stroke:#1D1D1B;stroke-width:4;stroke-miterlimit:10;}
	.st1{fill:none;stroke:#1D1D1B;stroke-width:4;stroke-miterlimit:10;}
	.st2{fill:none;stroke:#1D1D1B;stroke-width:6;stroke-miterlimit:10;}
	.st3{stroke:#1D1D1B;stroke-width:4;stroke-miterlimit:10;}
	.st4{fill:#1D1D1B;}
</style>
<path class="st0" d="M316.6,329.7"/>
<path class="st1" d="M268.2,493.2c9.8,9.9,16.9,18,20.1,23.2c0,0,132.7,158.7,134,164.3c0,0,14.7,2.3,42.7-14.3
	c28-16.7,96-86,93.3-117.3c0,0-186-154.7-184.7-156c0.1-0.1-1.2-1.8-3.8-4.7"/>
<path class="st1" d="M316.6,329.7c-52.1-57.4-122.9-136.2-134.4-158.3c0,0,0,71.7-132.7,132.7c0,0,86.8,70.3,156.1,131.3"/>
<path class="st2" d="M203.3,439.9l54,53.3c0,0,68-15.3,117.9-115.2l-55.4-52.1C319.9,325.8,265.3,403.2,203.3,439.9z"/>
<path class="st3" d="M429.3,652.6c24.1-5.8,57.3-40.7,57.3-40.7L341.3,464.6l-37.4,36L429.3,652.6z"/>
<polygon class="st4" points="225.3,420.9 100.7,309.2 117.3,295.9 244.4,409.5 "/>
<polygon class="st4" points="138,277.9 154,263.2 273.2,381.7 258.9,396.2 "/>
<polygon class="st4" points="176.7,240.6 289.3,364.1 302,349 190,223.9 "/>
<polygon class="st4" points="345.5,426.2 510,582.6 522.7,569.2 360.7,409.5 "/>
<path class="st4" d="M63.3,263.2c0,0-0.2,27.8,59.3-32c0,0,45.3-50.7,10.7-43.3c0,0,59.8-38.3,26,16c0,0-35.6,49.1-72.7,74.7
	S63.3,263.2,63.3,263.2z"/>
<path class="st4" d="M104.7,237.9c0,0-15.5,5.3,7-22c0,0,6.6-8.6,26.3-16c0,0,5.9-21.5-32.1,16c0,0-25.5,30-19.7,30.8
	C92,247.4,104.7,237.9,104.7,237.9z"/>
<ellipse transform="matrix(0.7071 -0.7071 0.7071 0.7071 -127.8779 147.1961)" class="st2" cx="113.7" cy="228" rx="90" ry="28.1"/>
</svg>
