<?xml version="1.0" encoding="utf-8"?>
<!-- Generator: Adobe Illustrator 21.0.2, SVG Export Plug-In . SVG Version: 6.00 Build 0)  -->
<svg version="1.1" id="Layer_1" xmlns="http://www.w3.org/2000/svg" xmlns:xlink="http://www.w3.org/1999/xlink" x="0px" y="0px"
	 viewBox="0 0 595.3 841.9" style="enable-background:new 0 0 595.3 841.9;" xml:space="preserve">
<style type="text/css">
	.st0{fill:none;stroke:#000000;stroke-width:3;stroke-miterlimit:10;}
</style>
<rect x="133" y="95" class="st0" width="45" height="45"/>
<rect x="133" y="140" class="st0" width="45" height="43.5"/>
<rect x="88" y="140" class="st0" width="45" height="43.5"/>
<rect x="133" y="317" class="st0" width="45" height="45"/>
<rect x="133" y="272" class="st0" width="45" height="45"/>
<rect x="133" y="228.5" class="st0" width="45" height="45"/>
<rect x="133" y="183.5" class="st0" width="45" height="45"/>
<rect x="268.5" y="228.5" class="st0" width="45" height="45"/>
<rect x="223.2" y="273" class="st0" width="45" height="45"/>
<rect x="223.2" y="228.5" class="st0" width="45" height="45"/>
<rect x="223.2" y="183.5" class="st0" width="45" height="45"/>
<rect x="313.5" y="139.8" class="st0" width="45" height="44"/>
<rect x="268.5" y="139.8" class="st0" width="45" height="44"/>
<rect x="223.2" y="139.8" class="st0" width="45" height="44"/>
<rect x="178" y="139.8" class="st0" width="45" height="44"/>
</svg>
