<?xml version="1.0" encoding="utf-8"?>
<!-- Generator: Adobe Illustrator 21.0.2, SVG Export Plug-In . SVG Version: 6.00 Build 0)  -->
<svg version="1.1" id="Layer_1" xmlns="http://www.w3.org/2000/svg" xmlns:xlink="http://www.w3.org/1999/xlink" x="0px" y="0px"
	 viewBox="0 0 595.3 841.9" style="enable-background:new 0 0 595.3 841.9;" xml:space="preserve">
<style type="text/css">
	.st0{fill:none;stroke:#000000;stroke-width:6;stroke-miterlimit:10;}
	.st1{stroke:#000000;stroke-width:6;stroke-miterlimit:10;}
</style>
<path d="M342.4,345H253c-2.1,0-3.8-1.7-3.8-3.8l0,0c0-2.1,1.7-3.8,3.8-3.8h89.4c2.1,0,3.8,1.7,3.8,3.8l0,0
	C346.2,343.3,344.5,345,342.4,345z"/>
<path class="st0" d="M264,341.2v89.4l-47.5,83c0,0-11.8,16.2,13.8,30.8h132.2c0,0,18.8-8,18.5-21.5c-0.3-13.5-28.2-53-36.8-67.5
	s-12-22.5-12-22.5l0.2-89.5"/>
<path d="M278,450.7c2.3-4.6,7.8-7.9,14.2-7.9c6.4,0,11.8,3.1,14.2,7.6"/>
<path class="st1" d="M369.7,520.9l-37.2-66.8h-21.8c0.2,1.1,0.4,2.3,0.4,3.5c0,10.3-8.4,18.7-18.7,18.7c-10.3,0-18.7-8.4-18.7-18.7
	c0-1.2,0.1-2.4,0.3-3.5h-10.8v0l-36.5,64.8c0,0-3.8,9.5,4.5,11.5s91,0,91,0h38.5C360.7,530.4,371.2,532.2,369.7,520.9z M263.3,507.8
	c-5.7,0-10.4-4.7-10.4-10.4s4.7-10.4,10.4-10.4s10.4,4.7,10.4,10.4S269,507.8,263.3,507.8z M326.1,516.4c-9.3,0-16.9-7.6-16.9-16.9
	s7.6-16.9,16.9-16.9s16.9,7.6,16.9,16.9S335.4,516.4,326.1,516.4z"/>
<circle cx="286.8" cy="412.6" r="7.8"/>
<circle cx="302.6" cy="371.3" r="12.9"/>
<circle cx="329.9" cy="317" r="11.4"/>
<circle cx="284.4" cy="301.6" r="12.9"/>
</svg>
