<?xml version="1.0" encoding="utf-8"?>
<!-- Generator: Adobe Illustrator 21.0.2, SVG Export Plug-In . SVG Version: 6.00 Build 0)  -->
<svg version="1.1" id="Layer_1" xmlns="http://www.w3.org/2000/svg" xmlns:xlink="http://www.w3.org/1999/xlink" x="0px" y="0px"
	 viewBox="0 0 595.3 841.9" style="enable-background:new 0 0 595.3 841.9;" xml:space="preserve">
<style type="text/css">
	.st0{fill:none;stroke:#000000;stroke-width:5;stroke-miterlimit:10;}
	.st1{stroke:#000000;stroke-width:5;stroke-miterlimit:10;}
</style>
<path class="st0" d="M288.3,463.7"/>
<path class="st0" d="M274.8,488.8L195.2,447c-3.1-1.6-4.3-5.5-2.7-8.6l7.7-14.7c1.6-3.1,5.5-4.3,8.6-2.7l79.6,41.8
	c3.1,1.6,4.3,5.5,2.7,8.6l-7.7,14.7C281.8,489.2,278,490.4,274.8,488.8z"/>
<path d="M252.8,497.7l-53.7-28.2c-3.1-1.6-4.3-5.5-2.7-8.6l1.7-3.2c1.6-3.1,5.5-4.3,8.6-2.7l53.7,28.2c3.1,1.6,4.3,5.5,2.7,8.6
	l-1.7,3.2C259.8,498.2,255.9,499.4,252.8,497.7z"/>
<path d="M238.3,502.6l-33.8-17.7c-3.1-1.6-4.3-5.5-2.7-8.6l0,0c1.6-3.1,5.5-4.3,8.6-2.7l33.8,17.7c3.1,1.6,4.3,5.5,2.7,8.6l0,0
	C245.3,503,241.5,504.3,238.3,502.6z"/>
<path d="M224.4,516l-24.1-12.6c-3.1-1.6-4.3-5.5-2.7-8.6l3.5-6.6c1.6-3.1,5.5-4.3,8.6-2.7l24.1,12.6c3.1,1.6,4.3,5.5,2.7,8.6
	l-3.5,6.6C231.4,516.4,227.5,517.6,224.4,516z"/>
<path class="st0" d="M208.8,421l86.9-159.1c0,0,5.7,0.9,14.3,3c18.8,4.7,51.1,15.4,64.5,36l-86,161.9"/>
<line class="st0" x1="342.2" y1="209.4" x2="310" y2="264.9"/>
<line class="st0" x1="393.2" y1="234.9" x2="363" y2="288.5"/>
<path d="M392.3,239.7l-53.7-28.2c-3.1-1.6-4.3-5.5-2.7-8.6l7.3-13.9c1.6-3.1,5.5-4.3,8.6-2.7l53.7,28.2c3.1,1.6,4.3,5.5,2.7,8.6
	L401,237C399.3,240.2,395.4,241.4,392.3,239.7z"/>
<path d="M438.5,355.1c0,18.3-14.8,33.1-33.1,33.1s-33.1-14.8-33.1-33.1c0-18.3,14.8-33.1,33.1-33.1S438.5,336.8,438.5,355.1z
	 M405.4,340.6c-7.8,0-14.1,6.3-14.1,14.1c0,7.8,6.3,14.1,14.1,14.1s14.1-6.3,14.1-14.1C419.5,347,413.2,340.6,405.4,340.6z"/>
<path d="M387.5,419.2c0,11.2-9.1,20.3-20.3,20.3s-20.3-9.1-20.3-20.3c0-11.2,9.1-20.3,20.3-20.3S387.5,408,387.5,419.2z
	 M367.3,406.7c-6.9,0-12.4,5.6-12.4,12.4c0,6.9,5.6,12.4,12.4,12.4s12.4-5.6,12.4-12.4C379.7,412.2,374.2,406.7,367.3,406.7z"/>
<path class="st0" d="M370,313.1c0,0,20.5,5.8,23.2,14"/>
<path class="st0" d="M322,404.4c0,0,10.5,10.2,27,11"/>
<line class="st0" x1="376" y1="404.4" x2="391" y2="383.6"/>
<path class="st0" d="M352.9,545.2c-17.5,11-43.3,21.3-75.2,17.2"/>
<path class="st0" d="M384.6,425.9c0,0,40.9,40.2-6.4,98.5c0,0-2,2.3-5.7,5.8"/>
<path class="st0" d="M420.7,378.7c0,0,60.1,65.6-9.2,183.2c-4.3,7.3,14,38.7,25.3,41.3c11.3,2.7,31.3,16.3,31.3,16.3v21h-346v-24.3
	c0,0-2.7-3,15.7-3s132-2.3,132-2.3s59.2-23.7,83.2-65.8c2-3.5,3.8-7.2,5.2-11c0,0,6.1-2.6,14.3-4c15-2.5,36.9-0.7,39.9,30.2"/>
<circle class="st1" cx="379" cy="566.3" r="22"/>
<path class="st0" d="M272,577.4c0,0,27,4.5,20.1,22.5"/>
<path d="M270.2,581.4l-144.5-75.9c-3.1-1.6-4.3-5.5-2.7-8.6l6.7-12.8c1.6-3.1,5.5-4.3,8.6-2.7l144.5,75.9c3.1,1.6,4.3,5.5,2.7,8.6
	l-6.7,12.8C277.2,581.8,273.4,583,270.2,581.4z"/>
<path d="M212.7,591.5l-61.8-32.4c-3.1-1.6-4.3-5.5-2.7-8.6l3.5-6.6c1.6-3.1,5.5-4.3,8.6-2.7l61.8,32.4c3.1,1.6,4.3,5.5,2.7,8.6
	l-3.5,6.6C219.7,592,215.8,593.2,212.7,591.5z"/>
<path d="M220.5,583c23.5,15.5,20.9,30,20.9,30h-6.1c3-11.6-17.5-26.6-17.5-26.6L220.5,583z"/>
</svg>
