<?xml version="1.0" encoding="utf-8"?>
<!-- Generator: Adobe Illustrator 21.0.2, SVG Export Plug-In . SVG Version: 6.00 Build 0)  -->
<svg version="1.1" id="Layer_1" xmlns="http://www.w3.org/2000/svg" xmlns:xlink="http://www.w3.org/1999/xlink" x="0px" y="0px"
	 viewBox="0 0 595.3 841.9" style="enable-background:new 0 0 595.3 841.9;" xml:space="preserve">
<style type="text/css">
	.st0{stroke:#000000;stroke-width:5;stroke-miterlimit:10;}
</style>
<path class="st0" d="M532.7,237.9c0,0-28.7-27-42.7-41.5s-21-16.5-21-16.5h-11.1c0,0,0,152,0,166s-16,10-16,10s-231,1-244,0
	s-13-16-13-16l-1-160h-68v33h-36v-33c0,0-13,0.1-16.6,0c-3.6-0.1-5.2,8-5.2,8s0,463.6,0,466.9s6.5,5.9,6.5,5.9s461.7,0,467.6,0
	s6.8-6.8,6.8-6.8s0-359,0-390C539,241.2,532.7,237.9,532.7,237.9z M457,596.9H138c0,0,0-151,0-163s16-12.9,16-12.9s280-0.1,289-0.1
	s14,16,14,16V596.9z M514.5,629.1c0,4.6-3.7,8.3-8.3,8.3h-15.9c-4.6,0-8.3-3.7-8.3-8.3v-15.9c0-4.6,3.7-8.3,8.3-8.3h15.9
	c4.6,0,8.3,3.7,8.3,8.3V629.1z"/>
<rect x="329" y="211.9" width="82" height="130"/>
<rect x="178" y="451.9" width="240" height="15"/>
<rect x="178" y="501.4" width="240" height="15"/>
<rect x="178" y="550.9" width="240" height="15"/>
</svg>
