<?xml version="1.0" encoding="utf-8"?>
<!-- Generator: Adobe Illustrator 21.0.2, SVG Export Plug-In . SVG Version: 6.00 Build 0)  -->
<svg version="1.1" id="Layer_1" xmlns="http://www.w3.org/2000/svg" xmlns:xlink="http://www.w3.org/1999/xlink" x="0px" y="0px"
	 viewBox="0 0 595.3 841.9" style="enable-background:new 0 0 595.3 841.9;" xml:space="preserve">
<path d="M396.6,164.9H199.4c-23.9,0-43.4,19.5-43.4,43.4v425.2c0,23.9,19.5,43.4,43.4,43.4h197.2c23.9,0,43.4-19.5,43.4-43.4V208.3
	C440,184.4,420.5,164.9,396.6,164.9z M390,193c4.1,0,7.5,3.4,7.5,7.5c0,4.1-3.4,7.5-7.5,7.5s-7.5-3.4-7.5-7.5
	C382.5,196.4,385.9,193,390,193z M278.4,196.9h40.2c2,0,3.6,1.6,3.6,3.6s-1.6,3.6-3.6,3.6h-40.2c-2,0-3.6-1.6-3.6-3.6
	S276.4,196.9,278.4,196.9z M330.2,644.9c-0.1,3.5-2.9,6.4-6.4,6.4h-52.2c-3.5,0-6.4-2.9-6.4-6.4v-10.2c0-3.5,2.9-6.4,6.4-6.4h52.2
	c3.5,0,6.4,2.9,6.4,6.4V644.9z M418,612.4H177.5V229.5H418V612.4z"/>
<g>
	<path d="M229.7,289.9h-31c-2.3,0-4.3-1.9-4.3-4.3v-31c0-2.3,1.9-4.3,4.3-4.3h31c2.3,0,4.3,1.9,4.3,4.3v31
		C234,288,232.1,289.9,229.7,289.9z"/>
	<path d="M285.6,289.9h-31c-2.3,0-4.3-1.9-4.3-4.3v-31c0-2.3,1.9-4.3,4.3-4.3h31c2.3,0,4.3,1.9,4.3,4.3v31
		C289.8,288,287.9,289.9,285.6,289.9z"/>
	<path d="M341.7,289.9h-31c-2.3,0-4.3-1.9-4.3-4.3v-31c0-2.3,1.9-4.3,4.3-4.3h31c2.3,0,4.3,1.9,4.3,4.3v31
		C346,288,344.1,289.9,341.7,289.9z"/>
	<path d="M398.2,289.9h-31c-2.3,0-4.3-1.9-4.3-4.3v-31c0-2.3,1.9-4.3,4.3-4.3h31c2.3,0,4.3,1.9,4.3,4.3v31
		C402.5,288,400.6,289.9,398.2,289.9z"/>
</g>
<g>
	<path d="M229.7,341.4h-31c-2.3,0-4.3-1.9-4.3-4.3v-31c0-2.3,1.9-4.3,4.3-4.3h31c2.3,0,4.3,1.9,4.3,4.3v31
		C234,339.5,232.1,341.4,229.7,341.4z"/>
	<path d="M285.6,341.4h-31c-2.3,0-4.3-1.9-4.3-4.3v-31c0-2.3,1.9-4.3,4.3-4.3h31c2.3,0,4.3,1.9,4.3,4.3v31
		C289.8,339.5,287.9,341.4,285.6,341.4z"/>
	<path d="M341.7,341.4h-31c-2.3,0-4.3-1.9-4.3-4.3v-31c0-2.3,1.9-4.3,4.3-4.3h31c2.3,0,4.3,1.9,4.3,4.3v31
		C346,339.5,344.1,341.4,341.7,341.4z"/>
	<path d="M398.2,341.4h-31c-2.3,0-4.3-1.9-4.3-4.3v-31c0-2.3,1.9-4.3,4.3-4.3h31c2.3,0,4.3,1.9,4.3,4.3v31
		C402.5,339.5,400.6,341.4,398.2,341.4z"/>
</g>
<g>
	<path d="M229.7,392.9h-31c-2.3,0-4.3-1.9-4.3-4.3v-31c0-2.3,1.9-4.3,4.3-4.3h31c2.3,0,4.3,1.9,4.3,4.3v31
		C234,391,232.1,392.9,229.7,392.9z"/>
	<path d="M285.6,392.9h-31c-2.3,0-4.3-1.9-4.3-4.3v-31c0-2.3,1.9-4.3,4.3-4.3h31c2.3,0,4.3,1.9,4.3,4.3v31
		C289.8,391,287.9,392.9,285.6,392.9z"/>
	<path d="M341.7,392.9h-31c-2.3,0-4.3-1.9-4.3-4.3v-31c0-2.3,1.9-4.3,4.3-4.3h31c2.3,0,4.3,1.9,4.3,4.3v31
		C346,391,344.1,392.9,341.7,392.9z"/>
	<path d="M398.2,392.9h-31c-2.3,0-4.3-1.9-4.3-4.3v-31c0-2.3,1.9-4.3,4.3-4.3h31c2.3,0,4.3,1.9,4.3,4.3v31
		C402.5,391,400.6,392.9,398.2,392.9z"/>
</g>
<g>
	<path d="M229.7,440.7h-31c-2.3,0-4.3-1.9-4.3-4.3v-31c0-2.3,1.9-4.3,4.3-4.3h31c2.3,0,4.3,1.9,4.3,4.3v31
		C234,438.8,232.1,440.7,229.7,440.7z"/>
	<path d="M285.6,440.7h-31c-2.3,0-4.3-1.9-4.3-4.3v-31c0-2.3,1.9-4.3,4.3-4.3h31c2.3,0,4.3,1.9,4.3,4.3v31
		C289.8,438.8,287.9,440.7,285.6,440.7z"/>
	<path d="M341.7,440.7h-31c-2.3,0-4.3-1.9-4.3-4.3v-31c0-2.3,1.9-4.3,4.3-4.3h31c2.3,0,4.3,1.9,4.3,4.3v31
		C346,438.8,344.1,440.7,341.7,440.7z"/>
</g>
<g>
	<path d="M229.7,597.4h-31c-2.3,0-4.3-1.9-4.3-4.3v-31c0-2.3,1.9-4.3,4.3-4.3h31c2.3,0,4.3,1.9,4.3,4.3v31
		C234,595.5,232.1,597.4,229.7,597.4z"/>
	<path d="M285.6,597.4h-31c-2.3,0-4.3-1.9-4.3-4.3v-31c0-2.3,1.9-4.3,4.3-4.3h31c2.3,0,4.3,1.9,4.3,4.3v31
		C289.8,595.5,287.9,597.4,285.6,597.4z"/>
	<path d="M341.7,597.4h-31c-2.3,0-4.3-1.9-4.3-4.3v-31c0-2.3,1.9-4.3,4.3-4.3h31c2.3,0,4.3,1.9,4.3,4.3v31
		C346,595.5,344.1,597.4,341.7,597.4z"/>
	<path d="M398.2,597.4h-31c-2.3,0-4.3-1.9-4.3-4.3v-31c0-2.3,1.9-4.3,4.3-4.3h31c2.3,0,4.3,1.9,4.3,4.3v31
		C402.5,595.5,400.6,597.4,398.2,597.4z"/>
</g>
</svg>
