<?xml version="1.0" encoding="utf-8"?>
<!-- Generator: Adobe Illustrator 21.0.2, SVG Export Plug-In . SVG Version: 6.00 Build 0)  -->
<svg version="1.1" id="Layer_1" xmlns="http://www.w3.org/2000/svg" xmlns:xlink="http://www.w3.org/1999/xlink" x="0px" y="0px"
	 viewBox="0 0 419.5 595.3" style="enable-background:new 0 0 419.5 595.3;" xml:space="preserve">
<style type="text/css">
	.st0{fill:none;stroke:#000000;stroke-width:2;stroke-miterlimit:10;}
	.st1{stroke:#000000;stroke-width:2;stroke-miterlimit:10;}
</style>
<ellipse cx="223.5" cy="339.9" rx="126.5" ry="9.5"/>
<path class="st0" d="M89.8,250.3c0,0-3,20,23.8,18.5s36.2-3.8,51-7.8S294,205.8,294,205.8l83.5-44.5c0,0,7-4.8,4.2-12
	s-21.8-10-29.2-10.2s-32.2-3-38.5-1.4s-38.8,10.4-66.2,26.9s-90.2,47.2-90.2,47.2L89.8,250.3z"/>
<path class="st1" d="M63,191l26.8,59.2l78.8-39.8c0,0,3.2-2.9,0-4.2C165.2,205,81,179.5,81,179.5s-6.8-1.2-11.5,2.8S63,191,63,191z"
	/>
<path class="st1" d="M208.5,225.9L152,312c0,0-5.9,9.5-1.7,11.3c4.2,1.7,9.1,2.7,14.4,0c5.4-2.7,29.6-11.5,40.1-28.9
	c10.5-17.4,84.4-100.1,84.4-100.1s4.6-7.6-3.7-5.4s-71,31.3-71,31.3S208.8,222.2,208.5,225.9z"/>
<path class="st1" d="M209.8,185.3c0,0-13.2-6.2-14.5-9.1c-1.2-2.9-0.7-5.9,2.7-6.6s32.6-6.3,45.4-2.5L209.8,185.3z"/>
<path class="st0" d="M164,293.7c0,0-14.7,9.8-17.4,14.2c-2.7,4.4,2.2,8.1,2.2,8.1"/>
<path class="st0" d="M234.9,265.5l-1.4-0.2l-5.4-0.7"/>
<path class="st0" d="M177.1,317.5c0,0,33.9-0.8,65.2-18.4"/>
<path class="st0" d="M233.5,265.3"/>
<ellipse transform="matrix(0.9687 -0.2483 0.2483 0.9687 -62.593 68.1747)" class="st0" cx="238.9" cy="282.2" rx="7.7" ry="17.1"/>
<path d="M238.9,296.9c4-16.6-8.5-24-8.5-24l0.5,9.3l3.1,9.1L238.9,296.9z"/>
<circle cx="169.6" cy="225" r="5.1"/>
<circle cx="187.5" cy="215.7" r="5.1"/>
<circle cx="205.5" cy="206" r="5.1"/>
<circle cx="223.7" cy="196.8" r="5.1"/>
<circle cx="242.1" cy="187.3" r="5.1"/>
<circle cx="259.9" cy="178" r="5.1"/>
<circle cx="277.4" cy="168.9" r="5.1"/>
<path d="M319,156.6l15.8-15.3l11,2.3c0,0-4.4,10.8-12.8,13.5C324.6,159.8,323.6,159.9,319,156.6z"/>
</svg>
