<?xml version="1.0" encoding="utf-8"?>
<!-- Generator: Adobe Illustrator 21.0.2, SVG Export Plug-In . SVG Version: 6.00 Build 0)  -->
<svg version="1.1" id="Layer_1" xmlns="http://www.w3.org/2000/svg" xmlns:xlink="http://www.w3.org/1999/xlink" x="0px" y="0px"
	 viewBox="0 0 419.5 595.3" style="enable-background:new 0 0 419.5 595.3;" xml:space="preserve">
<style type="text/css">
	.st0{fill:none;stroke:#000000;stroke-miterlimit:10;}
	.st1{stroke:#000000;stroke-miterlimit:10;}
</style>
<path class="st0" d="M193,239.9c27,24,28,128,28,128c-5.8,3.9-17.7,0-17.7,0C215,305.3,187,243.3,187,243.3L193,239.9z"/>
<path d="M203.8,363.1c0,0-69.2,1.2-96.7,36.3c0,0,22.8,19.8,78.8,20.7c56,0.8,78.3,0.2,108.2-19.2c0,0-27.5-34-73.2-36v3
	c0,0-6,4-17.7,0l1-6.2"/>
<path class="st0" d="M205.5,351.6c0,0,6.4,1.9,14.9,0"/>
<path class="st0" d="M206.2,337.4c0,0,5.7,2,13.4,0"/>
<path class="st0" d="M206.2,323c0,0,4.2,1.1,12-1.4"/>
<path class="st0" d="M204.4,308.7c0,0,6.1,0.8,11.9-2"/>
<path class="st0" d="M202.1,294.3c0,0,3.4,1.2,11.7-2.8"/>
<path class="st0" d="M199,279.9c0,0,4.7,1,11.4-4.1"/>
<path class="st0" d="M194.9,265.1c0,0,3.1,1.7,10.9-4"/>
<path class="st0" d="M190.5,252.1c0,0,6.6-1.9,8.5-4.2"/>
<path class="st1" d="M190.4,355.2c0,0,9.2,4.9,9.8,8.1c0.6,3.2,1.5,0.3,1.5,0.3S197.1,353.6,190.4,355.2z"/>
<path class="st1" d="M193,348c0,0,9.4,13,8.7,15.6s1.4,0.4,1.4,0.4S203.2,353.7,193,348z"/>
<path d="M238,348c0,0-13.5,9.6-14.7,17.1l-2.3-0.1C221,364.9,225.9,351.9,238,348z"/>
<path d="M235.7,359.9c0,0-7.2,2.9-9.9,6.2l-1.9-0.4C223.9,365.7,225.4,361.5,235.7,359.9z"/>
<path class="st0" d="M164.8,333.8c0,0,6.5-18.6,2.5-27.1l5,4.4c0,0,2.3-16,0-21l4.5,4.3c0,0,1.8-19.3-2-26.3l4.2,4.5l10.5-32
	c0,0-0.6-0.1-1.6-0.1c-7.4-0.4-38,0.2-43.4,39.5C138.3,324.8,164.8,333.8,164.8,333.8z"/>
<path class="st0" d="M189.5,238.9c-31.3-6.3-34.2-6.4-34.2-6.4l1.3-4.1c-7,5.8-26,8.2-26,8.2l2.2-4.1c-10.8,3.2-16.3,2.7-16.3,2.7
	l2.3-5.5c-10.3,6.3-26.8,3.3-26.8,3.3s7.7-24.8,46.2-32.5C176.7,192.9,189.5,238.9,189.5,238.9z"/>
<path class="st0" d="M189.5,240.6c8.7-1.8,31.5,5.8,31.5,5.8v-4c2.7,2.5,17.8,13.5,17.8,13.5v-6c3.8,4.9,16.2,11,16.2,11v-5.6
	c6,4.7,22.8,11.2,22.8,11.2s-11.5-45.5-38-49.7c-26.5-4.2-39.9,7.3-39.9,7.3"/>
<ellipse class="st1" cx="196.5" cy="238.9" rx="8.6" ry="7.6"/>
<ellipse class="st1" cx="183.5" cy="246.6" rx="8.6" ry="7.6"/>
<path class="st0" d="M112.8,310.1c0,0,14.8-72.5,64.5-73.8"/>
<path class="st0" d="M164.8,333.8c0,0-29.3-48.9,10.1-87.2"/>
<path class="st0" d="M92,233.1c0,0,49.2-44.1,94.3-2.5"/>
<path class="st0" d="M265.5,165.1c0,0-73.1,7.7-80.2,63.3c0,0-4.1-35.9,20.2-56.1S265.5,165.1,265.5,165.1s-11.7,13-23.8,15.5l6,2.2
	c0,0-4.3,5.5-16.3,9l5.5,1.7c0,0-16.7,10-28.2,13l5.7,1.8c0,0-19.3,18.8-24.8,32.3v-1.7c0,0-42-13.5-64.7,11s-12,60.1-12,60.1
	s13.7-13.5,16.7-23l2,4.4c0,0,6.8-4.8,9.7-13.6l1,4.6l2.3-2.5"/>
<ellipse class="st1" cx="185.5" cy="232.3" rx="8.6" ry="7.6"/>
<path class="st0" d="M200,231.3c0,0,33.7-23.7,77.9,35.3"/>
<path class="st0" d="M113.6,392.5c0,0-20.9,3.8-19.6,11.1c1.3,7.3,40,21.7,60.3,21c20.3-0.7,79.9,15.3,119-6c0,0,15-5.3,26-6
	c11-0.7,13-7,8.7-10.7c-4.3-3.7-28.3-10.9-28.3-10.9"/>
</svg>
